<?xml version="1.0" encoding="UTF-8"?>
<svg enable-background="new 0 0 1194.7 271.5" version="1.1" viewBox="0 0 1194.7 271.5" xml:space="preserve" xmlns="http://www.w3.org/2000/svg"><title>KDKA-TV logo (2022)</title><desc>CBS owned-and-operated television station in Pittsburgh and surrounding area</desc><style>.st0{fill:#090909}</style><g fill="#090909"><path class="st0" d="m352.8 37.2c-8.5 0-15.7 3-21.7 8.9s-9 13.1-9 21.6 3 15.7 9 21.7 13.2 9 21.7 9 15.7-3 21.7-9 9-13.2 9-21.7-3-15.7-9-21.6-13.2-8.9-21.7-8.9z"/><path class="st0" d="m352.8 10c-15.9 0-29.5 5.6-40.9 16.9-11.3 11.3-17 24.9-17 40.8 0 16 5.7 29.7 17 40.9 11.3 11.3 24.9 16.9 40.9 16.9 15.9 0 29.5-5.6 40.8-16.9s16.9-24.9 16.9-40.9c0-15.9-5.6-29.5-16.9-40.8-11.3-11.2-24.9-16.9-40.8-16.9zm54.2 57.8c-4.5 10-11.5 18.2-21 24.5-10 6.7-21.1 10-33.3 10s-23.3-3.3-33.4-10c-9.4-6.4-16.3-14.5-20.9-24.5 4.5-10 11.5-18.1 20.9-24.4 10.1-6.8 21.2-10.1 33.4-10.1s23.3 3.4 33.3 10.1c9.5 6.3 16.5 14.4 21 24.4zm70.5 54.5c29.8 0 44.7-20.9 44.7-20.9l-14.9-14.9s-10.4 14.9-29.8 14.9c-18.6 0-33.6-14.9-33.6-33.6 0-18.6 14.9-33.6 33.6-33.6 18.6 0 29.1 14.9 29.1 14.9l14.9-14.9s-14.9-20.9-44-20.9c-32.1 0-56.7 24.6-56.7 54.4s24.6 54.6 56.7 54.6zm135.8-32.1c0-20.1-19.4-25.4-19.4-25.4s14.2-5.2 14.2-21.6c0-14.9-12.7-27.6-33.6-27.6h-44v104.4h47c22.4 0 35.8-13.4 35.8-29.8zm-60.4-55.2h20.1c7.5 0 11.9 4.5 11.9 10.4s-4.5 10.4-11.9 10.4h-20.1v-20.8zm0 65.6v-25.3h23.1c8.9 0 14.2 5.2 14.2 12.7s-5.2 12.7-14.2 12.7h-23.1zm102.7 1.5c-15.7 0-24.6-11.2-24.6-11.2l-15 15s13.4 16.4 40.3 16.4c24.6 0 39.5-14.9 39.5-32.1 0-36.5-52.2-28.3-52.2-46.2 0-6 4.5-10.4 15.7-10.4 11.9 0 19.4 8.9 19.4 8.9l14.9-14.9s-11.9-14.2-35-14.2c-23.9 0-38 14.2-38 30.6 0 36.5 52.2 28.3 52.2 46.2-0.1 6.7-5.3 11.9-17.2 11.9zm170.7 17.9v-104.4h-22.3v64.9l-50.8-64.9h-20.1v104.4h22.4v-64.9l50.7 64.9zm94.3-20.9h-56.7v-22.3h43.3v-20.2h-43.3v-20.1h55.2v-20.9h-77.6v104.4h79.1zm82.3-46.9h0.9l21.2 67.8h21.6l34.3-104.4h-23.1l-21.6 70.1h-0.8l-21.6-70.1h-20.9l-21.6 70.1h-0.7l-21.7-70.1h-23.1l34.3 104.4h21.6zm156.2 38c0-36.5-52.2-28.3-52.2-46.2 0-6 4.5-10.4 15.7-10.4 11.9 0 19.4 8.9 19.4 8.9l14.9-14.9s-11.9-14.2-35-14.2c-23.9 0-38 14.2-38 30.6 0 36.5 52.2 28.3 52.2 46.2 0 6.7-5.2 11.9-17.1 11.9-15.7 0-24.6-11.2-24.6-11.2l-14.9 14.9s13.4 16.4 40.3 16.4c24.4 0.1 39.3-14.9 39.3-32zm-788.4 68.8c-3-2.9-6.5-5.2-10.6-6.9s-8.6-2.5-13.4-2.5h-39.5v104.4h11.2v-38.8h28.3c4.9 0 9.3-0.8 13.4-2.5s7.6-4 10.6-6.9 5.3-6.4 7-10.4 2.5-8.3 2.5-13-0.8-9-2.5-13-4.1-7.4-7-10.4zm-7.8 39.6c-4.1 4.1-9.5 6.1-16.3 6.1h-28.3v-44.7h28.3c6.8 0 12.2 2 16.3 6.1s6.1 9.5 6.1 16.3-2 12.2-6.1 16.2zm35.2-49h11.2v104.4h-11.2zm23.9 10.4h32.8v94h11.2v-94h32.8v-10.4h-76.8zm85.7 0h32.8v94h11.2v-94h32.8v-10.4h-76.8zm140.4 42.3c-4.2-2.1-8.8-3.9-13.6-5.1-4.9-1.3-9.4-2.7-13.6-4.3s-7.7-3.6-10.5-6-4.2-5.9-4.2-10.4c0-2.4 0.5-4.6 1.5-6.8 1-2.1 2.4-4 4.3-5.7s4.2-3 7-4 6-1.5 9.5-1.5c3.9 0 7.2 0.5 10.1 1.6 2.8 1.1 5.2 2.3 7.2 3.6 2.3 1.6 4.2 3.3 5.8 5.2l7.5-7.5c-2.2-2.5-4.8-4.7-7.8-6.7-2.6-1.7-5.8-3.2-9.5-4.6-3.8-1.4-8.2-2.1-13.3-2.1-5.2 0-9.8 0.8-13.9 2.3s-7.7 3.6-10.6 6.2-5.2 5.6-6.7 9-2.3 7-2.3 10.8c0 4.7 0.8 8.6 2.5 11.7 1.6 3.1 3.8 5.8 6.4 7.9s5.6 3.9 9 5.2 6.9 2.6 10.4 3.7c3.6 1.1 7.1 2.2 10.4 3.2 3.4 1 6.4 2.3 9 3.8s4.8 3.3 6.4 5.4 2.5 4.9 2.5 8.3c0 5.7-2 10.3-6 13.9s-10 5.4-17.8 5.4c-4.9 0-9.1-0.6-12.7-1.9s-6.5-2.8-8.8-4.5c-2.7-1.8-5-3.9-6.9-6.4l-6.7 7.6c2.3 3 5.1 5.6 8.5 7.9 2.9 2 6.5 3.8 11 5.4 4.4 1.6 9.6 2.4 15.6 2.4 5.6 0 10.5-0.7 14.9-2.2s8.1-3.6 11-6.3c3-2.7 5.2-5.8 6.8-9.5s2.3-7.6 2.3-11.9c0-6.2-1.4-11.1-4.2-14.7-2.7-3.4-6.2-6.3-10.5-8.4zm97.8 1.6c-2.6-2.4-5.4-4.3-8.5-5.8 2.2-1.1 4.2-2.6 6-4.6 1.5-1.7 2.9-3.9 4.1-6.6s1.9-6.2 1.9-10.4c0-3.7-0.7-7.2-2.2-10.4-1.4-3.3-3.4-6.1-6-8.6-2.5-2.4-5.6-4.3-9.2-5.7s-7.5-2.1-11.8-2.1h-40.2v104.3h42.5c4.9 0 9.3-0.7 13.2-2.2s7.3-3.6 10.1-6.3 4.9-5.8 6.5-9.5c1.5-3.6 2.3-7.6 2.3-11.9 0-4.9-0.9-8.9-2.7-12.2s-3.8-5.9-6-8zm-54.7-43.9h29.1c5.7 0 10.1 1.5 13.2 4.6 3.1 3 4.7 7 4.7 11.9 0 5.3-1.6 9.4-4.7 12.5-3.1 3-7.5 4.5-13.2 4.5h-29.1v-33.5zm46.5 78.1c-3.8 3.6-8.9 5.4-15.2 5.4h-31.3v-40.3h31.3c3.2 0 6.1 0.6 8.7 1.7s4.8 2.7 6.6 4.5c1.8 1.9 3.2 4.1 4.2 6.6s1.5 5.2 1.5 8c-0.1 5.8-2 10.5-5.8 14.1zm107.8-25.1c0 4.7-0.8 9-2.4 12.9s-3.8 7.3-6.6 10.1-6.1 5-9.9 6.6-8 2.4-12.5 2.4-8.6-0.8-12.5-2.4c-3.8-1.6-7.1-3.8-9.9-6.6s-5-6.2-6.6-10.1-2.4-8.2-2.4-12.9v-63.4h-11.2v63.4c0 6 1.1 11.5 3.3 16.7s5.2 9.7 9 13.5 8.3 6.8 13.5 9 10.7 3.3 16.7 3.3 11.5-1.1 16.7-3.3 9.7-5.2 13.5-9 6.8-8.3 9-13.5 3.3-10.7 3.3-16.7v-63.4h-11.2v63.4zm98-8.2c2.7-2.3 5.2-5.3 7.5-9.2 2.3-3.8 3.4-8.7 3.4-14.7 0-4.5-0.8-8.6-2.4-12.5-1.6-3.8-3.8-7.1-6.6-9.9s-6.2-5-10.1-6.6-8.2-2.4-12.9-2.4h-41.8v104.5h11.2v-41.8h29.8l23.1 41.8h12.7l-24.6-43.3c4-1.4 7.5-3.4 10.7-5.9zm-51.7-3v-41.8h30.6c6.4 0 11.4 1.9 15.2 5.7s5.7 8.9 5.7 15.2c0 6.4-1.9 11.4-5.7 15.2s-8.9 5.7-15.2 5.7h-30.6zm139.4 8.9h23.9v20.1c-2.2 2.7-4.9 5.1-8.1 7.2-2.7 1.8-6.1 3.4-10.1 4.8-4.1 1.4-8.9 2.2-14.6 2.2-6 0-11.5-1.1-16.7-3.3s-9.7-5.2-13.5-9.1-6.8-8.5-9-13.7c-2.2-5.3-3.3-11-3.3-17.2s1.1-11.9 3.3-17.1c2.2-5.3 5.2-9.8 9-13.7s8.3-6.9 13.5-9.1 10.7-3.3 16.7-3.3 11.1 0.9 15.5 2.8c4.4 1.8 8 3.9 10.9 6.2 3.4 2.6 6.3 5.6 8.7 8.9l7.5-6.7c-3-4-6.5-7.6-10.6-10.7-3.6-2.7-8-5.2-13.3-7.5s-11.5-3.4-18.6-3.4c-7.5 0-14.4 1.4-21 4.2-6.5 2.8-12.2 6.6-17.1 11.5s-8.7 10.6-11.5 17.1-4.2 13.5-4.2 21 1.4 14.4 4.2 21c2.8 6.5 6.6 12.2 11.5 17.1s10.6 8.7 17.1 11.5 13.5 4.2 21 4.2c7.2 0 13.4-1.1 18.9-3.4 5.4-2.2 10-4.7 13.8-7.4 4.4-3.2 8.2-6.8 11.3-10.9v-33.6h-35.1v10.3zm126-61.1v46.2h-58.1v-46.2h-11.2v104.4h11.2v-47.7h58.1v47.7h11.2v-104.4z"/><path class="st0" d="m201.3 138h10.1l-5-13.6zm-82.5-16h-6.5v25.4h6.5c3.4 0 6.3-1.2 8.8-3.7 2.4-2.5 3.6-5.5 3.6-9s-1.2-6.5-3.5-9c-2.5-2.5-5.4-3.7-8.9-3.7z"/><path class="st0" d="M20.7 10.7v244.4h244.4V10.7H20.7zm67.1 144.7-12.1-17.7-5.3 5.9v11.8h-8.9V114h8.9v18l16.2-18h10.3l-15.3 17.1 16.5 24.2H87.8zm46.1-6c-4.1 4-9.1 6-15.1 6h-15.4V114h15.4c6 0 11.1 2 15.1 6s6.1 8.9 6.1 14.7c0 5.8-2 10.7-6.1 14.7zm40.6 6-12.1-17.7-5.3 5.9v11.8h-8.9V114h8.9v18l16.2-18h10.3l-15.3 17.1 16.5 24.2h-10.3zm43.4 0-3.5-9.7h-15.9l-3.5 9.7h-9.4l16.2-41.3h9.4l16.2 41.3h-9.5z"/></g></svg>
